<svg width="38" height="38" viewBox="0 0 38 38" fill="none" xmlns="http://www.w3.org/2000/svg">
<path d="M35.0444 38L21.7444 24.7C20.6889 25.5444 19.475 26.213 18.1028 26.7056C16.7306 27.1981 15.2704 27.4444 13.7222 27.4444C9.88704 27.4444 6.64156 26.1159 3.98578 23.4587C1.33 20.8015 0.00140852 17.556 1.11699e-06 13.7222C-0.00140629 9.88844 1.32719 6.64296 3.98578 3.98578C6.64437 1.32859 9.88985 0 13.7222 0C17.5546 0 20.8008 1.32859 23.4608 3.98578C26.1208 6.64296 27.4487 9.88844 27.4444 13.7222C27.4444 15.2704 27.1982 16.7306 26.7056 18.1028C26.213 19.475 25.5444 20.6889 24.7 21.7444L38 35.0444L35.0444 38ZM13.7222 23.2222C16.3611 23.2222 18.6045 22.299 20.4524 20.4524C22.3004 18.6059 23.2236 16.3625 23.2222 13.7222C23.2208 11.0819 22.2976 8.83922 20.4524 6.99411C18.6073 5.149 16.3639 4.22504 13.7222 4.22222C11.0805 4.21941 8.83782 5.14337 6.99411 6.99411C5.15041 8.84485 4.22645 11.0876 4.22222 13.7222C4.218 16.3569 5.14196 18.6003 6.99411 20.4524C8.84626 22.3046 11.089 23.2279 13.7222 23.2222Z" fill="black"/>
</svg>
